<?xml version="1.0" standalone="no"?>
<!DOCTYPE svg PUBLIC "-//W3C//DTD SVG 20010904//EN"
 "http://www.w3.org/TR/2001/REC-SVG-20010904/DTD/svg10.dtd">
<svg version="1.0" xmlns="http://www.w3.org/2000/svg"
 width="173.000000pt" height="173.000000pt" viewBox="0 0 173.000000 173.000000"
 preserveAspectRatio="xMidYMid meet">
<metadata>
Created by potrace 1.14, written by Peter Selinger 2001-2017
</metadata>
<g transform="translate(0.000000,173.000000) scale(0.100000,-0.100000)"
fill="#000000" stroke="none">
<path d="M480 1517 l-365 -212 -3 -436 c-2 -391 -1 -438 14 -450 43 -36 721
-419 741 -419 13 0 54 18 91 40 37 22 197 115 357 207 200 116 293 176 302
193 18 36 18 814 0 849 -14 27 -719 440 -752 440 -11 0 -184 -95 -385 -212z"/>
</g>
</svg>
